<svg width="32" height="32" viewBox="0 0 32 32" fill="none" xmlns="http://www.w3.org/2000/svg">
<path d="M19.7162 14.1413C19.6419 14.0328 19.5897 13.9107 19.5626 13.7821C19.5355 13.6534 19.5341 13.5207 19.5583 13.3914C19.5826 13.2622 19.6321 13.1391 19.704 13.029C19.776 12.9189 19.8689 12.8241 19.9775 12.75L28.435 6.9625C28.6541 6.82697 28.917 6.78121 29.1689 6.83474C29.4209 6.88827 29.6425 7.03698 29.7876 7.24986C29.9326 7.46275 29.9899 7.72339 29.9475 7.97747C29.9051 8.23156 29.7663 8.45948 29.56 8.61375L21.1012 14.4013C20.9355 14.5156 20.7388 14.5766 20.5375 14.5763C20.3756 14.5756 20.2163 14.5357 20.0733 14.4599C19.9302 14.3842 19.8077 14.2748 19.7162 14.1413ZM29.825 24.7775C29.6751 24.9963 29.4445 25.1466 29.1838 25.1953C28.9232 25.2441 28.6538 25.1873 28.435 25.0375L17 17.2125L11.6862 20.8475C12.0917 21.8771 12.1036 23.0199 11.7196 24.0577C11.3357 25.0955 10.5828 25.9554 9.6049 26.4732C8.62699 26.991 7.49259 27.1303 6.41845 26.8646C5.3443 26.5988 4.40573 25.9466 3.78206 25.0326C3.15839 24.1186 2.89335 23.0068 3.03758 21.9097C3.18181 20.8126 3.7252 19.8072 4.56392 19.0854C5.40265 18.3636 6.4779 17.9762 7.58423 17.9971C8.69056 18.018 9.7504 18.4458 10.5612 19.1988L15.2288 16L10.555 12.8013C9.74689 13.5503 8.69119 13.9755 7.58949 13.9956C6.48779 14.0157 5.41729 13.6293 4.58241 12.9102C3.74752 12.1911 3.20676 11.1896 3.06338 10.0971C2.91999 9.0046 3.18404 7.89755 3.80509 6.98736C4.42614 6.07718 5.36069 5.42763 6.43026 5.16276C7.49983 4.89789 8.6295 5.03625 9.60353 5.55143C10.5776 6.06661 11.3277 6.9225 11.7107 7.95567C12.0938 8.98884 12.0828 10.1269 11.68 11.1525L29.555 23.3862C29.6643 23.4597 29.758 23.554 29.8308 23.6637C29.9035 23.7735 29.9539 23.8965 29.979 24.0258C30.0041 24.1551 30.0034 24.288 29.977 24.417C29.9505 24.546 29.8989 24.6685 29.825 24.7775ZM10 22.5C10.0001 21.9216 9.79969 21.3611 9.43285 20.9139C9.06601 20.4667 8.55547 20.1606 7.98821 20.0476C7.42095 19.9346 6.83208 20.0219 6.32193 20.2944C5.81178 20.567 5.41191 21.008 5.19048 21.5423C4.96904 22.0767 4.93972 22.6712 5.10752 23.2248C5.27532 23.7783 5.62986 24.2565 6.11073 24.5779C6.59159 24.8993 7.16903 25.0441 7.74465 24.9875C8.32027 24.9309 8.85845 24.6764 9.2675 24.2675C9.5005 24.036 9.68522 23.7606 9.81096 23.4572C9.9367 23.1538 10.001 22.8284 10 22.5ZM9.2675 11.2663C9.61721 10.9166 9.85538 10.4712 9.95191 9.98622C10.0484 9.50125 9.99897 8.99854 9.80977 8.54168C9.62057 8.08482 9.30014 7.69433 8.889 7.4196C8.47786 7.14486 7.99449 6.99822 7.5 6.99822C7.00551 6.99822 6.52213 7.14486 6.111 7.4196C5.69986 7.69433 5.37943 8.08482 5.19023 8.54168C5.00103 8.99854 4.95157 9.50125 5.04809 9.98622C5.14462 10.4712 5.38279 10.9166 5.7325 11.2663C5.96336 11.5006 6.23852 11.6867 6.54195 11.8137C6.84539 11.9407 7.17105 12.0061 7.5 12.0061C7.82895 12.0061 8.15461 11.9407 8.45805 11.8137C8.76148 11.6867 9.03663 11.5006 9.2675 11.2663Z" fill="#B89B79"/>
</svg>
